<svg width="25" height="25" viewBox="0 0 25 25" fill="none" xmlns="http://www.w3.org/2000/svg">
<path d="M20.9809 6.44898C21.0508 6.51865 21.1062 6.60141 21.144 6.69253C21.1818 6.78365 21.2013 6.88133 21.2013 6.97998C21.2013 7.07863 21.1818 7.17631 21.144 7.26743C21.1062 7.35855 21.0508 7.44131 20.9809 7.51098L10.4809 18.011C10.4113 18.0808 10.3285 18.1362 10.2374 18.174C10.1463 18.2119 10.0486 18.2313 9.94992 18.2313C9.85127 18.2313 9.75359 18.2119 9.66247 18.174C9.57135 18.1362 9.48859 18.0808 9.41892 18.011L4.16892 12.761C4.02809 12.6201 3.94897 12.4291 3.94897 12.23C3.94897 12.0308 4.02809 11.8398 4.16892 11.699C4.30975 11.5581 4.50076 11.479 4.69992 11.479C4.89909 11.479 5.09009 11.5581 5.23092 11.699L9.94992 16.4195L19.9189 6.44898C19.9886 6.37913 20.0714 6.32372 20.1625 6.28591C20.2536 6.2481 20.3513 6.22864 20.4499 6.22864C20.5486 6.22864 20.6463 6.2481 20.7374 6.28591C20.8285 6.32372 20.9113 6.37913 20.9809 6.44898Z" fill="#212529"/>
</svg>
