<svg width="40" height="32" viewBox="0 0 40 32" fill="none" xmlns="http://www.w3.org/2000/svg">
<path fill-rule="evenodd" clip-rule="evenodd" d="M8.30814 0.0678101C6.02576 0.0678101 4.33695 2.06544 4.41254 4.23188C4.48509 6.31323 4.39085 9.00883 3.7122 11.2071C3.03153 13.4119 1.88034 14.8085 0 14.9878V17.0122C1.88034 17.1915 3.03153 18.5882 3.7122 20.7929C4.39085 22.9912 4.48509 25.6868 4.41254 27.7682C4.33695 29.9343 6.02576 31.9322 8.30847 31.9322H31.6949C33.9773 31.9322 35.6658 29.9346 35.5902 27.7682C35.5176 25.6868 35.6119 22.9912 36.2905 20.7929C36.9715 18.5882 38.1197 17.1915 40 17.0122V14.9878C38.1197 14.8085 36.9715 13.4119 36.2905 11.2071C35.6119 9.00917 35.5176 6.31323 35.5902 4.23188C35.6658 2.06578 33.9773 0.0678101 31.6949 0.0678101H8.3078H8.30814ZM27.1186 19.6824C27.1186 22.6654 24.8936 24.4746 21.201 24.4746H14.9153C14.7354 24.4746 14.563 24.4032 14.4359 24.276C14.3087 24.1489 14.2373 23.9764 14.2373 23.7966V8.2034C14.2373 8.0236 14.3087 7.85115 14.4359 7.72401C14.563 7.59687 14.7354 7.52544 14.9153 7.52544H21.1651C24.2441 7.52544 26.2647 9.19323 26.2647 11.7539C26.2647 13.5512 24.9054 15.1604 23.1736 15.442V15.5359C25.5312 15.7946 27.1186 17.4271 27.1186 19.6824ZM20.5156 9.67459H16.9315V14.737H19.9502C22.2837 14.737 23.5705 13.7973 23.5705 12.1176C23.5705 10.5437 22.4641 9.67459 20.5156 9.67459ZM16.9315 16.7458V22.3248H20.6475C23.077 22.3248 24.3641 21.3498 24.3641 19.5176C24.3641 17.6851 23.041 16.7454 20.4912 16.7454L16.9315 16.7458Z" fill="#212529"/>
</svg>
