<svg width="24" height="20" viewBox="0 0 24 20" fill="none" xmlns="http://www.w3.org/2000/svg">
<g clip-path="url(#clip0_101_736)">
<g clip-path="url(#clip1_101_736)">
<g clip-path="url(#clip2_101_736)">
<path d="M2.70861 3.46302C2.66363 2.17121 3.67011 0.97998 5.03057 0.97998H18.971C20.3315 0.97998 21.338 2.17121 21.293 3.46302C21.2498 4.70393 21.3059 6.31139 21.7104 7.62206C22.1163 8.93679 22.8006 9.76781 23.9215 9.87459V11.0854C22.8006 11.1922 22.1163 12.0232 21.7104 13.3379C21.3059 14.6486 21.2498 16.256 21.293 17.497C21.338 18.7888 20.3315 19.98 18.971 19.98H5.03057C3.67011 19.98 2.66363 18.7888 2.70866 17.497C2.75183 16.256 2.69571 14.6486 2.29112 13.3379C1.88533 12.0232 1.19928 11.1922 0.0783691 11.0854V9.87459C1.19923 9.76781 1.88533 8.93679 2.29112 7.62206C2.69571 6.31139 2.75183 4.70393 2.70861 3.46302Z" fill="url(#paint0_linear_101_736)"/>
<g filter="url(#filter0_d_101_736)">
<path d="M12.5171 15.5307C14.7196 15.5307 16.0469 14.4522 16.0469 12.6735C16.0469 11.3289 15.0998 10.3555 13.6937 10.2014V10.1453C14.7268 9.97728 15.5375 9.01788 15.5375 7.94643C15.5375 6.41977 14.3322 5.42529 12.4955 5.42529H8.36304V15.5307H12.5171ZM9.97012 6.70686H12.1081C13.2704 6.70686 13.9304 7.22508 13.9304 8.16348C13.9304 9.16494 13.1628 9.72516 11.7709 9.72516H9.97012V6.70686ZM9.97012 14.2492V10.9227H12.0937C13.6147 10.9227 14.4039 11.4829 14.4039 12.5754C14.4039 13.6679 13.6363 14.2492 12.187 14.2492H9.97012Z" fill="url(#paint1_linear_101_736)"/>
<path d="M12.5171 15.5307C14.7196 15.5307 16.0469 14.4522 16.0469 12.6735C16.0469 11.3289 15.0998 10.3555 13.6937 10.2014V10.1453C14.7268 9.97728 15.5375 9.01788 15.5375 7.94643C15.5375 6.41977 14.3322 5.42529 12.4955 5.42529H8.36304V15.5307H12.5171ZM9.97012 6.70686H12.1081C13.2704 6.70686 13.9304 7.22508 13.9304 8.16348C13.9304 9.16494 13.1628 9.72516 11.7709 9.72516H9.97012V6.70686ZM9.97012 14.2492V10.9227H12.0937C13.6147 10.9227 14.4039 11.4829 14.4039 12.5754C14.4039 13.6679 13.6363 14.2492 12.187 14.2492H9.97012Z" stroke="white" stroke-width="0.0465686"/>
</g>
</g>
</g>
</g>
<defs>
<filter id="filter0_d_101_736" x="7.59475" y="4.84315" width="9.22042" height="11.6422" filterUnits="userSpaceOnUse" color-interpolation-filters="sRGB">
<feFlood flood-opacity="0" result="BackgroundImageFix"/>
<feColorMatrix in="SourceAlpha" type="matrix" values="0 0 0 0 0 0 0 0 0 0 0 0 0 0 0 0 0 0 127 0" result="hardAlpha"/>
<feOffset dy="0.186275"/>
<feGaussianBlur stdDeviation="0.372549"/>
<feColorMatrix type="matrix" values="0 0 0 0 0 0 0 0 0 0 0 0 0 0 0 0 0 0 0.15 0"/>
<feBlend mode="normal" in2="BackgroundImageFix" result="effect1_dropShadow_101_736"/>
<feBlend mode="normal" in="SourceGraphic" in2="effect1_dropShadow_101_736" result="shape"/>
</filter>
<linearGradient id="paint0_linear_101_736" x1="3.62126" y1="1.48283" x2="24.4561" y2="18.0215" gradientUnits="userSpaceOnUse">
<stop stop-color="#9013FE"/>
<stop offset="1" stop-color="#6610F2"/>
</linearGradient>
<linearGradient id="paint1_linear_101_736" x1="9.08983" y1="6.09043" x2="13.747" y2="13.9667" gradientUnits="userSpaceOnUse">
<stop stop-color="white"/>
<stop offset="1" stop-color="#F1E5FC"/>
</linearGradient>
<clipPath id="clip0_101_736">
<rect width="24" height="19" fill="white" transform="translate(0 0.97998)"/>
</clipPath>
<clipPath id="clip1_101_736">
<rect width="24" height="19" fill="white" transform="translate(0 0.97998)"/>
</clipPath>
<clipPath id="clip2_101_736">
<rect width="23.8431" height="19" fill="white" transform="translate(0.0783691 0.97998)"/>
</clipPath>
</defs>
</svg>
